PathFileType	4	(X/Y/Z)	SUBJ59_2_walk_RCNL2025.trc
DataRate	CameraRate	NumFrames	NumMarkers	Units	OrigDataRate	OrigDataStartFrame	OrigNumFrames
100	100	14	25	mm	100	246	327
Frame#	Time	R_Shoulder			L_Shoulder			C7			J_Notch			R_Elbow			L_Elbow			R_Wrist			L_Wrist			R_Asis			L_Asis			Sacral			Thoracic			Sternum			R_Thigh_Lateral			R_Knee_Lateral			R_Shank_Lateral			R_Ankle_Lateral			R_Heel			R_Toe			L_Thigh_Lateral			L_Knee_Lateral			L_Shank_Lateral			L_Ankle_Lateral			L_Heel			L_Toe		
		X1	Y1	Z1	X2	Y2	Z2	X3	Y3	Z3	X4	Y4	Z4	X5	Y5	Z5	X6	Y6	Z6	X7	Y7	Z7	X8	Y8	Z8	X9	Y9	Z9	X10	Y10	Z10	X11	Y11	Z11	X12	Y12	Z12	X13	Y13	Z13	X14	Y14	Z14	X15	Y15	Z15	X16	Y16	Z16	X17	Y17	Z17	X18	Y18	Z18	X19	Y19	Z19	X20	Y20	Z20	X21	Y21	Z21	X22	Y22	Z22	X23	Y23	Z23	X24	Y24	Z24	X25	Y25	Z25
246	2.45000000	487.108673	1414.798950	429.035950	509.616882	1484.316040	32.428032	404.069397	1533.106812	231.265137	567.122742	1436.558228	228.328781	397.338043	1101.066528	491.214813	546.661987	1165.433594	-114.361641	400.706085	821.172211	490.887024	708.650604	958.702728	-73.500725	569.449463	976.834045	310.238983	559.705566	972.713745	82.234695	345.772430	998.986877	202.727142	340.568634	1321.478760	189.554489	621.333679	1243.309937	205.247253	598.822510	598.940247	400.288452	621.054138	507.746368	345.695282	647.481995	310.716736	419.077240	664.269287	64.671951	307.607788	626.150269	54.548096	261.000397	825.469482	55.861591	274.021912	401.795776	596.694275	2.983198	378.962280	490.582703	60.983025	273.147339	320.040405	7.138443	144.279160	129.644394	86.964912	94.143906	130.646057	139.601059	270.101013	38.084934	139.834274
247	2.46000000	499.014191	1415.073608	430.953369	521.226624	1486.201294	34.588844	415.821289	1534.114746	233.860870	578.756226	1437.624756	230.423813	409.815918	1101.103027	492.377686	554.957520	1166.809082	-112.552513	414.432434	821.277222	491.483612	715.701202	958.892456	-72.426855	581.089050	978.506409	311.375092	571.365845	973.763733	83.395584	357.445129	1000.256287	203.263992	352.210327	1322.622437	191.008636	633.131714	1244.549438	206.685638	609.955933	600.379395	401.115173	631.187500	508.571411	346.542450	657.009583	311.047607	419.919922	665.609924	64.850151	307.644287	626.924622	55.263016	261.429199	826.830383	53.405949	273.829681	417.559998	596.511536	2.406110	396.097351	490.369141	59.713009	284.989044	323.368591	6.281238	151.432327	136.760651	86.650520	102.585266	140.172104	140.028809	270.610321	37.832596	140.186371
248	2.47000000	511.050323	1415.546143	432.802948	532.834106	1488.118774	36.769474	427.496887	1535.192871	236.399918	590.297729	1438.751221	232.424408	422.530334	1101.328491	493.608612	563.131836	1168.255249	-110.732834	428.546280	821.582642	492.098511	722.257080	958.851868	-71.313711	592.592957	980.273132	312.578613	582.948425	974.973755	84.635918	369.039612	1001.649231	203.838913	363.767639	1323.816406	192.525040	644.801636	1245.820068	208.018951	620.134888	601.381042	401.919373	640.702332	509.192810	347.229340	665.853088	311.112335	420.556580	666.745239	65.112160	307.533051	627.606140	55.856922	261.685211	827.973328	51.510979	273.507324	434.509003	596.203003	1.633414	414.484344	490.110992	58.337173	298.176575	326.853088	5.369269	160.089996	144.411438	86.477798	112.715515	150.287430	140.684174	271.509583	37.724487	140.537598
249	2.48000000	523.193054	1416.167358	434.564026	544.375183	1489.987427	38.949165	439.066193	1536.297363	238.867661	601.715881	1439.893921	234.310532	435.464905	1101.688843	494.911346	571.214661	1169.711426	-108.932671	443.035553	822.031342	492.736557	728.370483	958.555939	-70.164516	603.931396	982.050171	313.846771	594.457031	976.287720	85.933746	380.519196	1003.095642	204.464096	375.215149	1325.013672	194.119308	656.325012	1247.077026	209.233856	629.345886	601.951660	402.631378	649.526306	509.609222	347.752625	673.711121	310.951111	420.946686	667.702515	65.413155	307.284607	628.200317	56.342884	261.765381	828.935364	50.056046	273.084808	452.600830	595.756531	0.698543	434.017120	489.784882	56.925694	312.787354	330.351410	4.408985	170.343369	152.439880	86.432472	124.551132	160.765839	141.499313	273.081482	37.902489	140.776398
250	2.49000000	535.410034	1416.886108	436.215729	555.782776	1491.740112	41.095608	450.511169	1537.394165	241.252274	612.991211	1441.017456	236.066666	448.601379	1102.131714	496.285187	579.224060	1171.111938	-107.173683	457.890396	822.567169	493.403046	734.095642	957.982605	-68.986073	615.088135	983.763428	315.167511	605.888611	977.646179	87.265053	391.851166	1004.525574	205.137207	386.532562	1326.180908	195.799820	667.694092	1248.288086	210.327072	637.682922	602.171997	403.205475	657.644897	509.850983	348.137939	680.476746	310.646698	421.097748	668.501160	65.716988	306.937073	628.710754	56.738937	261.693176	829.745361	48.938522	272.599182	471.710602	595.190491	-0.334699	454.522522	489.393280	55.559994	328.828918	333.732880	3.424674	182.201920	160.668289	86.498238	138.008072	171.345367	142.398819	275.715881	38.543877	140.752502
251	2.50000000	547.661194	1417.656494	437.738342	566.999023	1493.333008	43.162552	461.821045	1538.461792	243.541321	624.116699	1442.098511	237.682373	461.922302	1102.612549	497.723358	587.165710	1172.393066	-105.467857	473.103699	823.141022	494.103455	739.483704	957.118256	-67.788595	626.063538	985.357788	316.520905	617.229858	978.993164	88.606979	403.010712	1005.877502	205.842407	397.703857	1327.303711	197.565384	678.907593	1249.436768	211.303116	645.335449	602.166321	403.629272	665.098877	509.960052	348.422119	686.173462	310.275238	421.054230	669.160583	65.998085	306.538605	629.139893	57.062435	261.508392	830.422363	48.079037	272.086853	491.629303	594.557556	-1.380674	475.776123	488.973145	54.318989	346.214172	336.914062	2.458110	195.589447	168.919968	86.662872	152.920395	181.749146	143.323792	279.904480	39.837265	140.299026
252	2.51000000	559.901245	1418.444702	439.113770	577.982056	1494.748657	45.092762	472.989868	1539.495728	245.718094	635.096924	1443.129639	239.151199	475.412476	1103.101440	499.213379	595.037170	1173.503906	-103.818977	488.669357	823.716278	494.842468	744.577209	955.962860	-66.585604	636.869873	986.800354	317.884918	628.457886	980.284058	89.939842	413.983307	1007.108154	206.557190	408.717072	1328.387939	199.403137	689.966614	1250.522827	212.172043	652.528687	602.058105	403.925110	671.968994	509.974945	348.637665	690.892822	309.886627	420.882202	669.702942	66.242065	306.132843	629.490173	57.328197	261.256012	830.976929	47.419846	271.582977	512.076721	593.946106	-2.348777	497.530823	488.600128	53.264935	364.763092	339.883514	1.563519	210.368698	177.034973	86.921188	169.083176	191.703568	144.257599	286.196198	41.930637	139.267380
253	2.52000000	572.082764	1419.234985	440.326782	588.707886	1495.993530	46.826572	484.016296	1540.507812	247.760651	645.944580	1444.119385	240.469559	489.059204	1103.586548	500.739136	602.832947	1174.414795	-102.224815	504.578598	824.275269	495.623123	749.405975	954.531769	-65.393311	647.524841	988.079285	319.240662	639.544983	981.492004	91.248772	424.766174	1008.200439	207.261551	419.566559	1329.454956	201.289185	700.871582	1251.559082	212.947495	659.456604	601.936707	404.138428	678.356140	509.924500	348.807343	694.772888	309.513702	420.648560	670.150635	66.445244	305.752991	629.767151	57.548817	260.976685	831.416504	46.918915	271.117065	532.730652	593.475281	-3.164050	519.551758	488.385193	52.431313	384.245056	342.697540	0.802443	226.389038	184.867294	87.271828	186.300827	200.951157	145.230545	295.098114	44.861465	137.570572
254	2.53000000	584.159363	1420.030762	441.367950	599.170898	1497.094116	48.312344	494.905701	1541.524536	249.643814	656.674011	1445.088989	241.635666	502.852936	1104.076050	502.283630	610.549133	1175.122437	-100.678345	520.815659	824.824860	496.445465	753.985565	952.855255	-64.229399	658.045959	989.199951	320.574432	650.469421	982.614319	92.523163	435.367432	1009.166748	207.944458	430.255951	1330.533813	203.192520	711.623230	1252.567383	213.644241	666.248169	601.847473	404.317657	684.360962	509.828857	348.947632	697.991333	309.180450	420.404633	670.523071	66.613983	305.420746	629.980469	57.734627	260.702209	831.750793	46.543316	270.708008	553.272278	593.281921	-3.784539	541.645630	488.458649	51.815170	404.431946	345.453949	0.235682	243.534805	192.261627	87.708412	204.427948	209.250443	146.287292	306.950745	48.510189	135.229645
255	2.54000000	596.090454	1420.854248	442.237061	609.380249	1498.090820	49.515949	505.670715	1542.580078	251.343750	667.296692	1446.067505	242.648193	516.788818	1104.595093	503.830841	618.186218	1175.648926	-99.167427	537.355087	825.399536	497.305054	758.318726	950.976959	-63.111656	668.447571	990.180847	321.877686	661.227478	983.677368	93.754807	445.804779	1010.044250	208.605011	440.799225	1331.651978	205.078812	722.224915	1253.573730	214.276505	672.974854	601.805176	404.498108	690.066711	509.702728	349.071381	700.746399	308.896942	420.179749	670.833618	66.762924	305.147644	630.142639	57.894154	260.454285	831.994019	46.264828	270.363403	573.438416	593.497559	-4.207361	563.675720	488.942566	51.379528	425.122009	348.261627	-0.092341	261.750763	199.028320	88.209656	223.391190	216.374161	147.436081	321.851288	52.613815	132.403381
256	2.55000000	607.845459	1421.742310	442.945862	619.355042	1499.028931	50.427269	516.328186	1543.705811	252.843155	677.822083	1447.085815	243.505859	530.865784	1105.182129	505.367126	625.747864	1176.033936	-97.675575	554.163361	826.057770	498.194366	762.400055	948.949371	-62.056850	678.738892	991.049927	323.146484	671.838196	984.732788	94.937843	456.104431	1010.885315	209.249771	451.218231	1332.827515	206.913727	732.683960	1254.602905	214.857086	679.669250	601.811829	404.696350	695.530762	509.555939	349.186310	703.227417	308.655945	419.984894	671.091309	66.910103	304.935272	630.267700	58.035213	260.244141	832.163757	46.058765	270.082092	593.063477	594.219666	-4.459401	585.559875	489.920929	51.068081	446.147675	351.203949	-0.173167	281.032257	204.939423	88.738510	243.171127	222.127823	148.621338	339.678040	56.831665	129.371490
257	2.56000000	619.405518	1422.737915	443.518677	629.120911	1499.949463	51.060905	526.893250	1544.919189	254.133408	688.259888	1448.167236	244.208557	545.082031	1105.881592	506.881042	633.238159	1176.324219	-96.185257	571.206879	826.871277	499.108459	766.221832	946.826843	-61.079956	688.924500	991.841064	324.380157	682.335938	985.844360	96.070686	466.298401	1011.745605	209.888290	461.536835	1334.065796	208.666473	743.010742	1255.673340	215.396530	686.332825	601.864624	404.912506	700.786194	509.392517	349.294800	705.591492	308.439545	419.819550	671.305603	67.069489	304.774994	630.369507	58.165234	260.073547	832.278015	45.904144	269.857391	612.094360	595.486145	-4.576809	607.255798	491.422394	50.825100	467.392883	354.296265	-0.045718	301.390350	209.754379	89.252190	263.759613	226.375031	149.737122	360.188629	60.824535	126.469193
258	2.57000000	630.763794	1423.882080	443.988861	638.708801	1500.884033	51.450401	537.375610	1546.218628	255.214645	698.620728	1449.321045	244.759232	559.427490	1106.735107	508.362335	640.656921	1176.562622	-94.681015	588.458923	827.908966	500.048264	769.779968	944.657410	-60.193983	699.007202	992.589233	325.579407	692.757324	987.069580	97.157761	476.420349	1012.673706	210.528671	471.775696	1335.360107	210.312119	753.218994	1256.792236	215.901337	692.938843	601.954895	405.136078	705.846924	509.211639	349.395508	707.956970	308.228119	419.674286	671.488831	67.244202	304.647095	630.460144	58.290638	259.937439	832.352661	45.783333	269.680359	630.570312	597.266113	-4.585250	628.739624	493.420166	50.611134	488.809509	357.455475	0.212193	322.819977	213.265549	89.711967	285.139069	229.043320	150.666916	383.112610	64.312325	124.007561
259	2.58000000	641.923523	1425.205688	444.392731	648.152161	1501.849243	51.640282	547.778870	1547.585449	256.096039	708.914551	1450.541626	245.165237	573.875793	1107.775513	509.799957	647.996033	1176.778809	-93.151756	605.897980	829.223267	501.016388	773.077789	942.477570	-59.410339	708.990906	993.326416	326.743103	703.129578	988.443909	98.209229	486.500732	1013.703125	211.173950	481.951843	1336.692505	211.832611	763.324524	1257.956055	216.373627	699.440552	602.067993	405.352325	710.714050	509.011871	349.484558	710.406677	308.005371	419.529785	671.652649	67.424500	304.522247	630.547791	58.416142	259.827240	832.401489	45.682041	269.542023	648.578857	599.472961	-4.493121	649.987549	495.843170	50.410545	510.416626	360.498993	0.510688	345.293457	215.336517	90.086761	307.291870	230.110886	151.325562	408.193695	67.098541	122.213028
